<svg xmlns="http://www.w3.org/2000/svg" viewBox="0 0 32 32">
  <rect width="32" height="32" rx="7" fill="#e8642c"/>
  <g transform="translate(6, 3) scale(0.625)">
    <path d="M16.5 2C16.5 2 10 8.5 8 14c-1.5 4 0 8.5 3 11 2.2 1.8 5.5 2.8 8.5 1.5 2.5-1.1 4.5-4 4.5-7 0-2.5-1.5-5-3-7-.8-1-1.5-1.8-2-3 0 0-1 2.5-3 4-1.5 1.1-2 .5-1.5-1 .5-2 2.5-5 4-7.5 1-1.5 1.5-3 1.5-3z" fill="white" opacity="0.95"/>
    <path d="M18 15c0 0-2 2.5-2 5 0 1.5 1 3 2.5 3s2.5-1.2 2.5-3c0-2.5-3-5-3-5z" fill="#e8642c" opacity="0.6"/>
  </g>
</svg>
